<?xml version="1.0" standalone="no"?>
<!DOCTYPE svg PUBLIC "-//W3C//DTD SVG 20010904//EN"
 "http://www.w3.org/TR/2001/REC-SVG-20010904/DTD/svg10.dtd">
<svg version="1.0" xmlns="http://www.w3.org/2000/svg"
 width="512.000000pt" height="512.000000pt" viewBox="0 0 512.000000 512.000000"
 preserveAspectRatio="xMidYMid meet">
<metadata>
Created by potrace 1.11, written by Peter Selinger 2001-2013
</metadata>
<g transform="translate(0.000000,512.000000) scale(0.100000,-0.100000)"
fill="#000000" stroke="none">
<path d="M2990 4463 c-87 -30 -147 -85 -189 -173 -25 -53 -26 -61 -25 -240 0
-184 0 -185 29 -244 38 -75 109 -138 183 -161 43 -14 93 -18 238 -18 l184 -1
1 -23 c0 -13 1 -52 1 -88 0 -36 -1 -73 -1 -83 -1 -17 -24 -18 -478 -18 l-478
1 -1 226 c-1 199 -3 228 -19 252 -34 52 -29 52 -510 53 -486 1 -485 2 -520
-52 -15 -24 -18 -56 -20 -248 -1 -122 -3 -223 -4 -226 0 -3 -40 -7 -89 -8
-200 -4 -347 -106 -418 -292 -16 -41 -18 -116 -20 -825 -1 -429 -3 -785 -3
-790 -1 -6 -31 -11 -68 -12 -72 -2 -107 -19 -130 -64 -9 -18 -13 -114 -13
-362 0 -283 2 -343 15 -367 33 -64 -107 -60 1904 -60 1164 0 1839 4 1855 10
14 5 35 24 46 42 19 31 20 51 20 373 0 365 -1 370 -53 409 -22 16 -41 20 -92
19 -64 -1 -65 -1 -66 25 0 15 -2 371 -3 792 l-2 765 -23 57 c-56 144 -177 244
-331 275 -14 3 -82 5 -152 6 l-128 0 -1 31 c-1 33 -1 154 0 172 1 8 48 11 154
10 253 -2 311 13 399 106 71 75 83 119 83 323 0 145 -3 178 -20 224 -24 65
-91 137 -160 171 l-50 25 -500 2 c-432 2 -506 0 -545 -14z m1008 -211 c48 -27
55 -53 55 -198 -1 -119 -3 -139 -20 -162 -38 -52 -37 -52 -513 -52 -476 0
-475 0 -513 51 -17 23 -19 44 -20 161 0 149 10 179 66 203 42 17 913 15 945
-3z m-1765 -521 c4 -1 7 -239 7 -531 0 -417 -3 -530 -12 -531 -7 0 -150 -1
-318 -2 l-305 0 -3 534 -2 534 312 -2 c172 -1 316 -2 321 -2z m-847 -794 l0
-265 -36 -16 c-38 -17 -70 -60 -70 -96 0 -34 31 -78 65 -94 45 -21 1130 -18
1161 3 28 18 54 63 54 91 0 36 -32 79 -71 97 l-36 15 1 262 1 261 713 2 c780
3 753 5 815 -55 16 -15 38 -45 49 -67 21 -39 21 -52 20 -790 0 -412 -1 -759
-1 -771 l-1 -20 -1490 0 -1490 -1 -1 21 c0 12 -1 359 -1 771 -1 738 -1 751 20
790 45 87 105 121 222 124 l77 2 -1 -264z m2880 -1869 l-1 -213 -1705 0 -1705
0 -1 213 0 212 1706 0 1707 0 -1 -212z"/>
<path d="M2732 3081 c-61 -28 -65 -50 -65 -312 0 -209 2 -241 17 -264 34 -52
42 -53 581 -51 483 1 501 2 527 21 15 11 31 30 37 43 16 34 14 480 -2 511 -6
13 -24 33 -39 44 -26 19 -43 20 -527 21 -403 1 -506 -2 -529 -13z m894 -306
c0 -88 -3 -105 -15 -106 -21 -1 -714 -1 -723 0 -5 1 -8 48 -8 106 l0 105 373
0 374 0 -1 -105z"/>
<path d="M1440 2227 c-52 -26 -69 -126 -27 -165 34 -31 64 -39 150 -35 80 3
122 19 131 51 22 72 8 124 -40 147 -39 19 -179 20 -214 2z"/>
<path d="M1980 2233 c-37 -15 -61 -61 -58 -109 3 -43 45 -93 80 -95 155 -8
191 -1 219 45 34 55 20 119 -31 149 -21 13 -51 17 -112 16 -45 0 -90 -3 -98
-6z"/>
<path d="M2491 2213 c-51 -47 -49 -133 6 -168 37 -24 192 -25 229 -1 53 36 62
108 19 162 -22 28 -26 29 -123 32 -98 4 -100 3 -131 -25z"/>
<path d="M3040 2227 c-52 -26 -69 -126 -27 -165 34 -31 64 -39 150 -35 80 3
122 19 131 51 22 72 8 124 -40 147 -39 19 -179 20 -214 2z"/>
<path d="M3568 2223 c-84 -53 -48 -191 50 -194 20 -1 51 -2 67 -2 54 -2 111
12 129 32 43 47 25 145 -31 170 -39 18 -183 13 -215 -6z"/>
<path d="M1444 1911 c-34 -15 -54 -52 -54 -99 0 -35 6 -49 29 -73 31 -31 41
-32 154 -30 43 1 77 7 92 17 49 32 54 119 10 164 -23 23 -34 25 -118 27 -50 2
-102 -1 -113 -6z"/>
<path d="M1974 1909 c-66 -33 -71 -142 -8 -184 38 -25 191 -26 229 -1 64 42
56 154 -12 185 -30 14 -181 13 -209 0z"/>
<path d="M2498 1901 c-57 -45 -58 -139 -1 -176 37 -24 192 -25 229 0 54 35 62
122 14 169 -17 18 -35 22 -118 24 -86 3 -100 1 -124 -17z"/>
<path d="M3044 1911 c-34 -15 -54 -52 -54 -99 0 -35 6 -49 29 -73 32 -32 32
-32 144 -30 52 0 85 6 101 17 50 32 56 119 11 164 -23 23 -34 25 -118 27 -50
2 -102 -1 -113 -6z"/>
<path d="M3574 1909 c-66 -33 -71 -142 -8 -184 38 -25 191 -26 229 -1 64 42
56 154 -12 185 -30 14 -181 13 -209 0z"/>
</g>
</svg>
